<svg xmlns="http://www.w3.org/2000/svg" version="1.1" xmlns:xlink="http://www.w3.org/1999/xlink" xmlns:svgjs="http://svgjs.dev/svgjs" width="1000" height="1125" viewBox="0 0 1000 1125"><g transform="matrix(1,0,0,1,0.00007343750002064553,0)"><svg viewBox="0 0 320 360" data-background-color="#ffffff" preserveAspectRatio="xMidYMid meet" height="1125" width="1000" xmlns="http://www.w3.org/2000/svg" xmlns:xlink="http://www.w3.org/1999/xlink"><g id="tight-bounds" transform="matrix(1,0,0,1,0.000023499999997511622,0)"><svg viewBox="0 0 320 360" height="360" width="320"><g><svg></svg></g><g><svg viewBox="0 0 320 360" height="360" width="320"><g><path transform="translate(-74.99272,-51.79039) scale(4.65793,4.65793)" d="M20.6 59.9l0.8 1-0.4-1.3c-0.1-0.6-0.8 0.1-0.4 0.3M21.5 59.3c0.3 0.5 0.6 1 0.6 1.5 0 0.7 0.6 1 1.1 1.2-0.7-0.8-1.1-3-1.7-2.7M59.9 16.9c1.7 0 3.3-0.2 5.1 0.2 4.4 1.1 8.1 3.3 10.6 6.4l7 11.2c0.3 2.8 0.9 5.9 0.8 9.3 0.7 0 0.6-1 1.4-1.2-0.8 2-1.2 4.5-1.4 7.4-0.5-1.6 0-4 0.1-5.3-0.7 1.1-1.1 0.3-1.1-0.2 0.1-0.8-0.3-0.7-0.6-1-1.1-1-1.8-2.1-2.6-3.8 0.5-1.3 0.6-3.2-1-4.2-0.5-0.3-1.1-0.8-1.4-1.6-0.4-1.1-1.1-2.4-0.9-4.1 0.1-0.5-1.5 1.1-2.4 0.4-3.9-2.7-7.8-5.8-12.5-8.4-2.5 0-4.3-0.9-5.2-2-0.8-1-0.2-2.3 1-2.4 0.7 0 1.5-0.2 2.1 0.2 0.1-0.4 0.5-0.9 1-0.9M50 14.6l0.2 0.1c1 0.2 1.5 1.6 2.6 1.1 0 0.7 0.1 1.4-0.1 1.9-0.3 0.8-1.2 0.8-1.9 0.8-6.7-0.4-10.6 2.4-14.7 4.8-1.1 0.7-2.3 1.2-3.2 2.1-4.3 4-9 7.7-10.1 15.1l-0.9 8.2c-0.1 0.9-1.1 1.8-0.9 2.9l0.7 4.9c-0.7-0.7-1.1 0.2-0.9 0.6 0.1 0.3 0.5 1.3 1.1 0.4 0.8 1.5 1.6 4.4 2.7 5.7 3.4 4 7.8 7.6 11.4 11.2 0.9-0.2 1.6-0.2 1.8-0.8 0.3 0.6-0.3 1.2-0.8 1.3 1.6 1 3.4 1.9 5.8 2.1 3.1 0.2 6 0.7 8.7 1.4 1.4-0.4 2.8-0.6 4.3-0.7 0.5 0 0.8-0.8 1.4-1l0.1-1c0.6 0.9 0.5-0.3 0.1-0.9 0.7 0.6 0.9 1.1 1.2 1.5 0-0.3 0.8-1.4 0.8-0.1l0.2-1.3c0.3-0.2 0.4 1.1 0.7 0.2 0.3-0.9 0.9-0.2 1.5-0.5-0.2 0.4-0.1 1.2 0.6 0.7l0.8-0.7c0.5 1.2 1.3 0.7 1.7 0.5 4.4-2.8 8.8-6.1 13-9.4l-0.1 1.3 0.5-1.6c0.5 0.5 0.9 0.1 1.1-0.2 0.6-1 1.4-2 2.7-2.9-1.6 4.3-3.5 7.7-5.9 10.5l-1 1.2c0 0.7-0.2 1.6-1 1.7-0.4 0.1-1.2-0.2-1.8 0.4-0.3 0.4 0.7 1.2-0.1 0.6-0.7-0.5-1.4 0-2.2 0.2-0.6 0.2 0.4 0.8 0.6 1.2 0.2 0.4 0.4 0.8 0.3 1.3l-1.1-1.2c-1.3 0.7-2.1 2-3.2 3-0.5 0.4-0.3 1.1-0.3 1.7-0.7 0-1.5-0.2-1.9 0.2-0.3 0.4-0.2 1-0.2 1.6-1-0.1-1.1-1.6-2-1.3-0.9 0.2-1.9 0.3-2.7 0.8 0.6 1.2-1 0.5-0.8 0.7-1.5-0.9-2.8-1.6-4.4-1-3.4-1.1-7.6-0.6-10.7-0.2 0-0.5 0.1-1-0.1-1.1-0.2 0.5-0.8 0.3-0.7 0.3-1.9-1.3-3.8-2.1-5.8-3.2-1.8 0.2-3.5-0.7-4-1.2-1.4-1.3-3-0.6-4.3-0.9-2.8-0.7-3.8-3.6-4.1-5.6-0.2-1-1-1.4-1.3-1.3-1.3-4.2-3.3-8-4.9-11.9-0.4-1-0.3-2-0.3-3.1 0.5 0.2 1 0.1 0.9-0.6-0.5-3.3-1.7-5.8-3-8.2 0.7-3.4 0.8-7.4 2.4-10.4 1.4-2.7 4-4.1 5.8-6.4 0.6-0.8 0.6-1.9 1.2-2.6 2-2 4-4.1 6.2-5.9 1-0.8 2.2 0 3.7-0.3 0.5-1.8 2.5-3.4 4.4-2.9 0.8 0.2 2.4-1.9 2.9-2.1 0.8-0.3 0.4 0.8 0.4 1.5 1.9-1.5 4.5-2.3 6.9-3.2" fill="#000000" fill-rule="nonzero" stroke="none" stroke-width="1" stroke-linecap="butt" stroke-linejoin="miter" stroke-miterlimit="10" stroke-dasharray="" stroke-dashoffset="0" font-family="none" font-weight="none" font-size="none" text-anchor="none" style="mix-blend-mode: normal" data-fill-palette-color="tertiary"></path></g><g transform="matrix(1,0,0,1,64,123.87411386045501)"><svg viewBox="0 0 192 112.25177227908998" height="112.25177227908998" width="192"><g><svg viewBox="0 0 192 112.25177227908998" height="112.25177227908998" width="192"><g><svg viewBox="0 0 192 112.25177227908998" height="112.25177227908998" width="192"><g transform="matrix(1,0,0,1,0,83.07065945056706)"><svg viewBox="0 0 192 29.181112828522917" height="29.181112828522917" width="192"><g id="textblocktransform"><svg viewBox="0 0 192 29.181112828522917" height="29.181112828522917" width="192" id="textblock"><g><svg viewBox="0 0 192 16.54329371816638" height="16.54329371816638" width="192"><g transform="matrix(1,0,0,1,0,0)"><svg width="192" viewBox="0.73 -38.5 460.12 39.65" height="16.54329371816638" data-palette-color="#89939e"><path d="M25.24-4.22Q26.22-5.05 26.79-6.37 27.37-7.69 27.37-9.14 27.37-10.6 26.81-11.4L26.81-11.4Q27.2-12.08 28.44-12.08 29.69-12.08 30.36-11.28 31.03-10.47 31.03-8.8 31.03-7.13 30.14-5.33 29.25-3.54 27.64-2.2L27.64-2.2Q24.07 0.73 18.73 0.73L18.73 0.73Q12.35 0.73 8.25-3.27L8.25-3.27Q4.08-7.37 3.22-14.97L3.22-14.97Q2.81-18.43 0.73-19.46L0.73-19.46Q1.88-20 2.32-20.58L2.32-20.58Q3.03-21.58 3.23-23.3 3.44-25.02 4.03-26.88 4.61-28.74 5.58-30.41 6.54-32.08 7.89-33.48 9.23-34.89 10.96-35.91L10.96-35.91Q14.62-38.09 19.51-38.09L19.51-38.09Q24.27-38.09 27.39-35.69L27.39-35.69Q30.2-33.52 31.03-29.79L31.03-29.79Q31.42-27.93 32.03-27.49L32.03-27.49Q32.28-27.29 32.64-27.12L32.64-27.12Q31.91-25.9 30.42-25.78L30.42-25.78Q29.76-25.68 29-26.05L29-26.05Q27.66-23.75 25.22-23.61L25.22-23.61Q24.71-23.56 24.44-23.8L24.44-23.8Q25.1-24.68 25.05-25.85L25.05-25.85Q25.05-26.07 24.98-26.29L24.98-26.29Q23.85-26.07 23.07-26.49L23.07-26.49Q21.8-27.22 21.75-28.08L21.75-28.08Q21.75-28.27 21.83-28.47L21.83-28.47Q23.34-28.03 24.71-29.15L24.71-29.15Q25.63-29.91 25.59-30.86 25.54-31.81 25.15-32.52 24.76-33.23 24.02-33.79L24.02-33.79Q22.36-35.11 19.87-35.11L19.87-35.11Q15.63-35.11 14.36-31.3L14.36-31.3Q13.94-30.03 13.94-28.32L13.94-28.32 13.94-23.39Q13.94-20.63 16.63-19.46L16.63-19.46Q13.94-18.16 13.94-15.23L13.94-15.23 13.94-9.2Q13.94-4.57 17.63-3.08L17.63-3.08Q18.82-2.61 20.26-2.61 21.7-2.61 22.99-3 24.27-3.39 25.24-4.22ZM8.76-6.47L8.76-6.47Q9.13-6.62 9.13-6.98L9.13-6.98Q9.13-7.52 8.62-8.67L8.62-8.67Q7.32-11.62 7.32-19.46L7.32-19.46Q7.32-25.17 8.69-29.17L8.69-29.17Q8.86-29.79 8.86-30.1 8.86-30.42 8.54-30.52L8.54-30.52Q7.4-29.08 6.91-27.66L6.91-27.66Q6.01-25.07 5.47-20.65L5.47-20.65Q5.4-20.02 4.03-19.46L4.03-19.46Q5.4-18.85 5.47-18.21L5.47-18.21Q6.35-10.64 7.71-8.11L7.71-8.11Q8.18-7.2 8.76-6.47ZM39.99-2.73Q38.45-4.3 37.56-6.45 36.67-8.59 36.47-10.13 36.28-11.67 36.14-12.11 36.01-12.55 35.69-12.94L35.69-12.94Q35.06-13.75 33.37-14.58L33.37-14.58Q35.5-15.53 36.08-17.63L36.08-17.63Q36.25-18.21 36.35-18.8L36.35-18.8Q36.98-23.17 40.57-26.11 44.16-29.05 48.95-29.05L48.95-29.05Q53.93-29.05 57.52-26.07L57.52-26.07Q61.01-23.17 61.64-18.8L61.64-18.8Q61.86-17.26 62.3-16.55L62.3-16.55Q63.13-15.26 64.62-14.58L64.62-14.58Q62.96-13.77 62.47-13.16L62.47-13.16Q61.81-12.3 61.64-11.13L61.64-11.13Q60.86-5.37 57.64-2.38 54.42 0.61 49.05 0.61L49.05 0.61Q43.28 0.61 39.99-2.73L39.99-2.73ZM53.15-19.51Q53.15-25.61 49-25.61 44.85-25.61 44.85-19.51L44.85-19.51 44.85-8.69Q44.85-2.83 48.97-2.83L48.97-2.83Q53.15-2.83 53.15-8.69L53.15-8.69 53.15-19.51ZM55.49-22.73L55.49-6.47Q56.71-6.93 56.83-9.67L56.83-9.67Q56.98-12.4 56.98-13.73 56.98-15.06 56.97-15.95 56.96-16.85 56.93-17.8L56.93-17.8Q56.83-21.36 56.37-21.95 55.91-22.53 55.49-22.73L55.49-22.73ZM40.87-6.47L40.87-6.47Q41.21-6.74 41.21-7.08L41.21-7.08Q41.21-7.62 40.99-8.45L40.99-8.45Q39.99-12.28 39.99-13.78 39.99-15.28 40.09-16.13 40.18-16.97 40.33-17.82L40.33-17.82Q40.65-19.48 40.99-20.75L40.99-20.75Q41.21-21.58 41.21-21.88L41.21-21.88Q41.21-22.46 40.87-22.73L40.87-22.73Q39.84-21.51 39.3-19.46 38.77-17.41 38.43-15.84L38.43-15.84Q38.3-15.19 36.98-14.58L36.98-14.58Q38.3-13.96 38.43-13.35L38.43-13.35Q39.33-9.23 39.91-8.11 40.5-6.98 40.87-6.47ZM88.37-7.37L88.37-7.37Q88.91-8.4 90.35-8.4L90.35-8.4Q91.33-8.4 91.87-7.59L91.87-7.59Q92.3-6.96 92.3-6.04 92.3-5.13 91.85-4.2 91.4-3.27 90.64-2.51 89.89-1.76 88.9-1.17 87.91-0.59 86.79-0.2L86.79-0.2Q84.52 0.61 82.05 0.61 79.58 0.61 77.39-0.26 75.19-1.12 73.6-2.69L73.6-2.69Q70.41-5.83 69.75-11.13L69.75-11.13Q69.58-12.33 69.18-12.84L69.18-12.84Q68.45-13.75 66.77-14.58L66.77-14.58Q69.36-15.75 69.75-18.8L69.75-18.8Q70.38-23.46 73.9-26.17L73.9-26.17Q77.27-28.81 82.1-28.81L82.1-28.81Q86.27-28.81 89.13-26.27L89.13-26.27Q91.84-23.88 91.84-20.73L91.84-20.73Q91.84-18.95 93.09-18.46L93.09-18.46Q92.35-17.26 91.04-17.26L91.04-17.26Q90.57-17.26 90.18-17.36L90.18-17.36Q89.33-16.11 87.71-15.67L87.71-15.67Q87.2-15.55 86.74-15.55 86.27-15.55 85.64-15.73 85-15.92 84.76-16.24L84.76-16.24Q85.47-16.53 85.59-17.7L85.59-17.7Q85.44-17.68 85.32-17.68L85.32-17.68 85.13-17.68Q83.47-17.68 83.08-19.58L83.08-19.58Q84.88-19.58 85.71-20.97L85.71-20.97Q86.01-21.46 86.01-22.17L86.01-22.17Q86.01-23.73 85-24.62 84-25.51 82.22-25.51L82.22-25.51Q78.1-25.51 78.1-20.19L78.1-20.19 78.1-8.33Q78.1-4.17 81.27-3.08L81.27-3.08Q82.2-2.73 83.37-2.73 84.54-2.73 85.51-3.03 86.47-3.32 87.13-3.83L87.13-3.83Q88.47-4.88 88.47-6.49L88.47-6.49Q88.47-6.98 88.37-7.37ZM74.02-6.47L74.02-6.47Q74.36-6.74 74.36-7.08L74.36-7.08Q74.36-7.62 74.14-8.45L74.14-8.45Q73.14-12.28 73.14-13.78 73.14-15.28 73.24-16.13 73.33-16.97 73.51-17.82L73.51-17.82Q73.8-19.48 74.14-20.75L74.14-20.75Q74.36-21.58 74.36-21.88L74.36-21.88Q74.36-22.46 74.02-22.73L74.02-22.73Q72.99-21.51 72.46-19.46 71.92-17.41 71.58-15.84L71.58-15.84Q71.45-15.21 70.14-14.6L70.14-14.6Q71.45-13.99 71.58-13.35L71.58-13.35Q72.48-9.23 73.07-8.11 73.65-6.98 74.02-6.47ZM100.72-2.73Q99.19-4.3 98.3-6.45 97.4-8.59 97.21-10.13 97.01-11.67 96.88-12.11 96.75-12.55 96.43-12.94L96.43-12.94Q95.79-13.75 94.11-14.58L94.11-14.58Q96.23-15.53 96.82-17.63L96.82-17.63Q96.99-18.21 97.09-18.8L97.09-18.8Q97.72-23.17 101.31-26.11 104.9-29.05 109.68-29.05L109.68-29.05Q114.67-29.05 118.25-26.07L118.25-26.07Q121.75-23.17 122.38-18.8L122.38-18.8Q122.6-17.26 123.04-16.55L123.04-16.55Q123.87-15.26 125.36-14.58L125.36-14.58Q123.7-13.77 123.21-13.16L123.21-13.16Q122.55-12.3 122.38-11.13L122.38-11.13Q121.6-5.37 118.38-2.38 115.15 0.61 109.78 0.61L109.78 0.61Q104.02 0.61 100.72-2.73L100.72-2.73ZM113.88-19.51Q113.88-25.61 109.73-25.61 105.58-25.61 105.58-19.51L105.58-19.51 105.58-8.69Q105.58-2.83 109.71-2.83L109.71-2.83Q113.88-2.83 113.88-8.69L113.88-8.69 113.88-19.51ZM116.23-22.73L116.23-6.47Q117.45-6.93 117.57-9.67L117.57-9.67Q117.72-12.4 117.72-13.73 117.72-15.06 117.7-15.95 117.69-16.85 117.67-17.8L117.67-17.8Q117.57-21.36 117.11-21.95 116.64-22.53 116.23-22.73L116.23-22.73ZM101.6-6.47L101.6-6.47Q101.95-6.74 101.95-7.08L101.95-7.08Q101.95-7.62 101.73-8.45L101.73-8.45Q100.72-12.28 100.72-13.78 100.72-15.28 100.82-16.13 100.92-16.97 101.07-17.82L101.07-17.82Q101.38-19.48 101.73-20.75L101.73-20.75Q101.95-21.58 101.95-21.88L101.95-21.88Q101.95-22.46 101.6-22.73L101.6-22.73Q100.58-21.51 100.04-19.46 99.5-17.41 99.16-15.84L99.16-15.84Q99.04-15.19 97.72-14.58L97.72-14.58Q99.04-13.96 99.16-13.35L99.16-13.35Q100.07-9.23 100.65-8.11 101.24-6.98 101.6-6.47ZM133.32-0.29L133.32-0.29Q132.19 0.49 130.75 0.49 129.31 0.49 128.66-0.18 128.02-0.85 128.02-1.46L128.02-1.46Q128.02-2.27 128.29-2.64L128.29-2.64Q128.82-2.22 129.65-2.22L129.65-2.22Q131.22-2.22 131.68-3.74L131.68-3.74 131.68-11.33Q131.68-12.4 131.22-12.89L131.22-12.89Q130.51-13.7 128.7-14.58L128.7-14.58Q130.41-15.36 130.87-15.82L130.87-15.82Q131.68-16.63 131.68-17.8L131.68-17.8 131.68-21.36Q131.68-23.44 130.26-23.61L130.26-23.61Q129.85-23.66 129.21-23.66 128.58-23.66 128.04-23.24L128.04-23.24Q127.7-23.71 127.7-24.21 127.7-24.71 127.96-25.33 128.21-25.95 128.73-26.51L128.73-26.51Q130.02-27.83 131.72-27.83 133.41-27.83 134.54-27.29L134.54-27.29Q135.88-28.81 137.27-28.81 138.66-28.81 139.2-28.16 139.74-27.51 139.74-26.17L139.74-26.17 139.74-23.88Q141.01-26.15 143.2-27.48 145.4-28.81 147.87-28.81 150.33-28.81 151.83-28.16 153.33-27.51 154.31-26.32L154.31-26.32Q156.22-23.95 156.22-19.43L156.22-19.43 156.22-17.82Q156.22-16.65 156.73-16.14L156.73-16.14Q157.49-15.36 159.19-14.58L159.19-14.58Q157.36-13.67 156.9-13.21L156.9-13.21Q156.22-12.45 156.22-11.38L156.22-11.38 156.22-3.74Q156.68-2.22 158.24-2.22L158.24-2.22Q159.07-2.22 159.61-2.64L159.61-2.64Q159.88-2.27 159.88-1.56 159.88-0.85 159.23-0.18 158.58 0.49 157.24 0.49 155.9 0.49 154.8-0.27L154.8-0.27Q153.82 0.49 152.52 0.49 151.21 0.49 150.19-0.24L150.19-0.24Q149.11 0.49 147.89 0.49 146.67 0.49 145.96-0.12 145.25-0.73 145.25-1.88L145.25-1.88Q145.25-2.42 145.62-2.73L145.62-2.73Q146.18-2.29 146.74-2.29L146.74-2.29Q147.82-2.29 148.28-3.49L148.28-3.49 148.28-18.04Q148.28-22.78 145.96-23.54L145.96-23.54Q145.2-23.78 144.33-23.78 143.45-23.78 142.69-23.43 141.93-23.07 141.32-22.44L141.32-22.44Q139.98-21.02 139.74-19.07L139.74-19.07 139.74-3.49Q140.2-2.29 141.27-2.29L141.27-2.29Q141.84-2.29 142.4-2.73L142.4-2.73Q142.76-2.42 142.76-1.57 142.76-0.73 142.06-0.12 141.35 0.49 140.19 0.49 139.03 0.49 138.08-0.24L138.08-0.24Q137.15 0.49 135.81 0.49 134.46 0.49 133.32-0.29ZM150.62-15.77L150.62-6.47Q151.85-6.93 151.97-9.67L151.97-9.67Q152.11-12.4 152.11-14.82 152.11-17.24 151.92-18.81 151.72-20.39 151.36-21.28 150.99-22.17 150.49-22.57 149.99-22.97 149.4-23.27L149.4-23.27Q150.33-21.07 150.48-19.26 150.62-17.46 150.62-15.77L150.62-15.77ZM135.43-11.87Q135.44-12.67 135.45-13.22 135.46-13.77 135.46-14.11 135.46-14.45 135.46-14.81 135.46-15.16 135.45-15.75 135.44-16.33 135.43-17.04 135.41-17.75 135.37-18.43L135.37-18.43Q135.29-20.12 135.15-20.75L135.15-20.75Q134.85-22.17 134.02-22.71L134.02-22.71 134.02-21.12Q134.02-17.02 133.84-16.3 133.66-15.58 133.25-15.21 132.85-14.84 132.07-14.58L132.07-14.58Q133.53-14.06 133.73-13.35L133.73-13.35Q134.02-12.18 134.02-8.08L134.02-8.08 134.02-6.49Q135.15-7.23 135.32-9.47L135.32-9.47Q135.41-11.06 135.43-11.87ZM185.44 0.49L185.44 0.49Q181.99 0.49 181.73-4.27L181.73-4.27Q180.48-2.03 178.37-0.71 176.26 0.61 173.83 0.61 171.4 0.61 169.88-0.05 168.37-0.71 167.37-1.95L167.37-1.95Q165.42-4.39 165.42-8.89L165.42-8.89 165.42-10.4Q165.42-13.23 162.44-14.6L162.44-14.6Q164.2-15.45 164.68-16.04L164.68-16.04Q165.42-16.94 165.42-18.07L165.42-18.07 165.42-21.36Q165.42-23.44 164-23.61L164-23.61Q163.59-23.66 162.95-23.66 162.32-23.66 161.78-23.24L161.78-23.24Q161.44-23.71 161.44-24.21 161.44-24.71 161.69-25.33 161.95-25.95 162.49-26.51L162.49-26.51Q163.76-27.83 165.44-27.83 167.13-27.83 168.62-27.27L168.62-27.27Q169.69-28.81 171.15-28.81L171.15-28.81Q173.67-28.81 173.67-26.17L173.67-26.17 173.67-10.28Q173.67-5.64 175.82-4.71L175.82-4.71Q176.5-4.42 177.34-4.42 178.19-4.42 178.87-4.77 179.55-5.13 180.07-5.74L180.07-5.74Q181.02-6.93 181.29-9.01L181.29-9.01 181.29-21.36Q181.29-24.15 179.02-24.15L179.02-24.15Q178.19-24.15 177.65-23.73L177.65-23.73Q177.31-24.19 177.31-24.69 177.31-25.2 177.56-25.74 177.82-26.29 178.36-26.76L178.36-26.76Q179.55-27.83 181.27-27.83 183-27.83 184.48-27.27L184.48-27.27Q185.56-28.81 187.02-28.81L187.02-28.81Q189.54-28.81 189.54-26.17L189.54-26.17 189.54-18.07Q189.54-16.94 189.98-16.41L189.98-16.41Q190.76-15.45 192.52-14.6L192.52-14.6Q189.54-13.23 189.54-10.4L189.54-10.4 189.54-4.1Q190-2.22 191.56-2.22L191.56-2.22Q192.39-2.22 192.93-2.64L192.93-2.64Q193.27-2.17 193.27-1.48 193.27-0.78 192.58-0.15 191.88 0.49 190.4 0.49 188.93 0.49 187.61-0.29L187.61-0.29Q186.63 0.49 185.44 0.49ZM183.61-22.73L183.61-6.47Q185.02-7.03 185.09-11.87L185.09-11.87Q185.09-12.89 185.09-14.21 185.09-15.53 185.08-16.47 185.07-17.41 185.05-18.26L185.05-18.26Q184.95-21.34 184.48-21.94 184.02-22.53 183.61-22.73L183.61-22.73ZM169.08-11.38L169.01-14.6 169.08-17.82Q169.08-20 168.93-20.7L168.93-20.7Q168.52-22.56 167.76-22.73L167.76-22.73 167.76-21.14Q167.76-17.02 167.58-16.3 167.39-15.58 166.99-15.22 166.59-14.87 165.81-14.6L165.81-14.6Q167.27-14.09 167.47-13.35L167.47-13.35Q167.76-12.18 167.76-8.06L167.76-8.06 167.76-6.47Q168.49-6.64 168.96-8.64L168.96-8.64Q169.08-9.2 169.08-11.38L169.08-11.38ZM212.17-3.58Q212.63-4.05 212.9-4.8 213.17-5.54 213.17-6.36 213.17-7.18 213.07-7.86L213.07-7.86Q213.24-8.23 214-8.44 214.76-8.64 215-8.64L215-8.64Q215.93-8.64 216.49-7.95 217.05-7.25 217.05-6.02 217.05-4.79 216.33-3.59 215.61-2.39 214.41-1.46L214.41-1.46Q211.75 0.61 208.21 0.61L208.21 0.61Q201.47 0.61 199.28-4.49L199.28-4.49Q198.47-6.37 198.47-9.2L198.47-9.2 198.47-12.18Q198.47-13.33 195.96-14.6L195.96-14.6Q198.47-16.04 198.47-18.48L198.47-18.48 198.47-21.36Q198.47-24.15 196.2-24.15L196.2-24.15Q195.37-24.15 194.83-23.73L194.83-23.73Q194.49-24.19 194.49-24.69 194.49-25.2 194.67-25.79 194.86-26.39 195.32-26.88L195.32-26.88Q196.49-28.15 198.96-27.76L198.96-27.76 198.96-28.54Q198.96-31.1 200.25-33.06L200.25-33.06Q201.4-34.81 202.29-34.81 203.18-34.81 203.67-34.2L203.67-34.2Q204.09-36.13 204.77-36.99 205.45-37.84 206.72-37.84L206.72-37.84 206.72-27.66 214.66-27.66Q214.85-27.27 214.85-26.35 214.85-25.44 214.15-24.89 213.44-24.34 212.44-24.34L212.44-24.34 206.72-24.34 206.72-7.81Q206.72-3.56 208.65-2.83L208.65-2.83Q209.21-2.64 209.86-2.64 210.51-2.64 211.11-2.87 211.7-3.1 212.17-3.58ZM200.82-8.06L200.82-6.47Q201.96-7.2 202.11-9.52L202.11-9.52Q202.21-11.18 202.22-12.11 202.23-13.04 202.24-13.61 202.26-14.18 202.26-14.5L202.26-14.5 202.26-15.48Q202.26-16.19 202.24-17.3 202.23-18.41 202.22-19.71 202.21-21.02 202.16-22.22L202.16-22.22Q202.08-25.1 201.94-25.73L201.94-25.73Q201.65-27.15 200.82-27.69L200.82-27.69 200.82-20.07Q200.82-16.67 200.71-16.48 200.6-16.28 200.52-16.02L200.52-16.02Q200.3-15.28 198.86-14.79L198.86-14.79Q200.33-14.28 200.52-13.55L200.52-13.55Q200.82-12.38 200.82-8.06L200.82-8.06ZM234.53-0.17L234.53-0.17Q233.62 0.49 232.46 0.49 231.3 0.49 230.61-0.11 229.91-0.71 229.91-1.49 229.91-2.27 230.16-2.64L230.16-2.64Q230.86-2.22 232.4-2.22L232.4-2.22Q233.01-2.22 233.74-2.84 234.48-3.47 234.92-4.57L234.92-4.57 234.92-16.02Q234.92-17.16 234.43-17.72L234.43-17.72Q233.7-18.6 231.94-19.46L231.94-19.46Q233.72-20.31 234.18-20.87L234.18-20.87Q234.92-21.8 234.92-22.95L234.92-22.95 234.94-33.59Q234.36-35.13 232.35-35.13L232.35-35.13Q231.33-35.13 230.84-34.72L230.84-34.72Q230.6-35.03 230.6-35.55 230.6-36.06 230.81-36.47 231.03-36.89 231.43-37.21L231.43-37.21Q232.26-37.84 233.65-37.84 235.04-37.84 235.94-37.04L235.94-37.04Q236.75-37.84 237.82-37.84 238.9-37.84 239.65-36.94L239.65-36.94Q240.61-37.84 241.34-37.84 242.07-37.84 242.46-37.72 242.85-37.6 243.24-37.26L243.24-37.26Q244.02-36.65 244.88-34.79L244.88-34.79 254.23-15.38 261.94-34.4 262.63-35.99Q263.24-37.33 263.77-37.59 264.31-37.84 265.03-37.84 265.75-37.84 266.51-37.3L266.51-37.3Q267.44-37.84 268.94-37.84 270.44-37.84 271.54-37.04L271.54-37.04Q272.51-37.84 273.58-37.84 274.64-37.84 275.24-37.67 275.83-37.5 276.27-37.21L276.27-37.21Q277.2-36.55 277.2-35.57L277.2-35.57Q277.2-35.08 276.93-34.72L276.93-34.72Q276.4-35.13 275.57-35.13L275.57-35.13Q273.71-35.13 273.05-33.4L273.05-33.4 273.05-22.95Q273.05-21.75 273.56-21.17L273.56-21.17Q274.37-20.21 276.03-19.46L276.03-19.46Q274.25-18.58 273.76-18.02L273.76-18.02Q273.05-17.14 273.05-16.02L273.05-16.02 273.05-4.08Q273.88-2.22 276.05-2.22L276.05-2.22Q276.88-2.22 277.42-2.64L277.42-2.64Q277.69-2.27 277.69-1.79 277.69-1.32 277.41-0.9 277.13-0.49 276.64-0.2L276.64-0.2Q275.52 0.49 274.08 0.49 272.64 0.49 271.39-0.29L271.39-0.29Q270.24 0.49 268.78 0.49L268.78 0.49Q267.22 0.49 266.02-0.29L266.02-0.29Q264.77 0.49 263.71 0.49 262.65 0.49 261.97 0.31 261.28 0.12 260.77-0.2L260.77-0.2Q259.72-0.83 259.72-1.78L259.72-1.78Q259.72-2.27 259.99-2.64L259.99-2.64Q260.53-2.22 261.36-2.22L261.36-2.22Q263.53-2.22 264.36-4.08L264.36-4.08 264.36-30.76 254.84-7.18 253.79-4.79Q253.03-3.08 252.73-2.86 252.42-2.64 252.23-2.64L252.23-2.64Q251.62-2.64 251.37-2.76L251.37-2.76 238.33-28.47 238.33-4.59Q238.8-3.47 239.6-2.84 240.41-2.22 241.41-2.22 242.41-2.22 243.12-2.64L243.12-2.64Q243.39-2.2 243.39-1.43 243.39-0.66 242.63-0.09 241.87 0.49 240.68 0.49 239.48 0.49 238.48-0.12L238.48-0.12Q237.6 0.49 236.47 0.49 235.33 0.49 234.53-0.17ZM250.22-13.65L241.78-30.54Q241.53-30.18 241.53-29.49L241.53-29.49Q241.53-27.51 243.19-24.24L243.19-24.24 252.08-6.49Q252.25-6.71 252.25-7.42L252.25-7.42Q252.25-9.55 250.22-13.65L250.22-13.65ZM266.7-30.52L266.7-6.47Q267.92-6.93 268.05-9.67L268.05-9.67Q268.19-12.4 268.19-17.24 268.19-22.07 268.18-23.67 268.17-25.27 268.14-26.25L268.14-26.25Q268.07-29.13 267.59-29.72 267.12-30.32 266.7-30.52L266.7-30.52ZM238.02-5.86L237.99-6.15Q237.99-5.96 238.02-5.86L238.02-5.86ZM235.23-5.86L235.26-6.15Q235.23-6.05 235.23-5.86L235.23-5.86ZM293.21-0.32L293.21-0.32Q291.95 0.49 290.37 0.49 288.8 0.49 287.55-0.29L287.55-0.29Q286.31 0.49 285.24 0.49 284.18 0.49 283.5 0.31 282.81 0.12 282.3-0.2L282.3-0.2Q281.25-0.83 281.25-1.78L281.25-1.78Q281.25-2.27 281.52-2.64L281.52-2.64Q282.06-2.22 282.89-2.22L282.89-2.22Q285.06-2.22 285.89-4.08L285.89-4.08 285.89-16.02Q285.89-17.14 285.43-17.68L285.43-17.68Q284.69-18.58 282.91-19.46L282.91-19.46Q284.57-20.21 285.06-20.8L285.06-20.8Q285.89-21.75 285.89-22.95L285.89-22.95 285.89-33.25Q285.06-35.13 282.89-35.13L282.89-35.13Q282.06-35.13 281.52-34.72L281.52-34.72Q281.25-35.08 281.25-35.56 281.25-36.04 281.53-36.45 281.81-36.87 282.3-37.16L282.3-37.16Q283.42-37.84 284.88-37.84 286.33-37.84 287.55-37.04L287.55-37.04Q288.82-37.84 290.37-37.84 291.92-37.84 293.17-37.06L293.17-37.06Q295.58-38.09 298.62-38.09 301.66-38.09 303.88-37.38 306.11-36.67 307.89-35.4L307.89-35.4Q311.6-32.76 312.79-28.44L312.79-28.44Q313.28-26.76 315.11-25.68L315.11-25.68Q313.23-24.63 312.6-22.51 311.96-20.39 310.49-18.57 309.01-16.75 307.11-15.53L307.11-15.53Q303.22-13.04 298.85-13.04L298.85-13.04Q296.95-13.04 294.87-13.53L294.87-13.53 294.87-4.2Q295.53-2.78 297.58-2.34L297.58-2.34Q298.12-2.22 298.78-2.22 299.44-2.22 299.98-2.64L299.98-2.64Q300.25-2.27 300.25-1.79 300.25-1.32 299.89-0.9 299.54-0.49 298.95-0.2L298.95-0.2Q297.66 0.49 296.12 0.49 294.58 0.49 293.21-0.32ZM294.87-31.03L294.87-19.9Q294.87-18.24 296.1-17.24L296.1-17.24Q297.22-16.31 298.98-16.31L298.98-16.31Q301.66-16.31 302.86-18.36L302.86-18.36Q303.27-19.07 303.27-20.09L303.27-20.09 303.27-31.13Q303.27-32.89 301.93-33.89L301.93-33.89Q300.71-34.81 299.5-34.81 298.29-34.81 297.52-34.58 296.75-34.35 296.17-33.89L296.17-33.89Q294.87-32.86 294.87-31.03L294.87-31.03ZM304.86-17.38L304.86-17.38Q305.42-17.48 306.02-18.75 306.62-20.02 306.92-21.74 307.23-23.46 307.69-24.28 308.16-25.1 309.18-25.44L309.18-25.44Q307.5-26 307.06-28.43 306.62-30.86 306.02-32.01 305.42-33.15 304.86-33.25L304.86-33.25Q305.76-31.23 305.76-25.44L305.76-25.44Q305.76-21.58 305.37-19.63 304.98-17.68 304.86-17.38ZM288.23-9.64L288.23-6.47Q289.46-6.93 289.58-9.67L289.58-9.67Q289.72-12.4 289.72-17.24 289.72-22.07 289.71-23.67 289.7-25.27 289.67-26.25L289.67-26.25Q289.6-29.13 289.13-29.72 288.65-30.32 288.23-30.52L288.23-30.52Q288.23-22.02 287.94-20.85L287.94-20.85Q287.6-19.87 286.28-19.46L286.28-19.46Q287.75-18.95 287.94-18.21L287.94-18.21Q288.23-17.04 288.23-9.64L288.23-9.64ZM320.82 0.88L320.82 0.88Q320.24 1.15 319.59 1.15 318.94 1.15 318.37 0.87 317.8 0.59 317.41 0.12L317.41 0.12Q316.55-0.85 316.55-2.01 316.55-3.17 317.28-4.17L317.28-4.17Q316.38-5.08 316.38-6.49 316.38-7.91 317.75-8.76L317.75-8.76Q317.28-9.64 317.28-10.72 317.28-11.79 317.54-12.45 317.8-13.11 318.29-13.62L318.29-13.62Q319.31-14.7 320.9-14.7L320.9-14.7Q321.58-14.7 322.09-14.23L322.09-14.23Q320.85-12.65 320.85-9.55L320.85-9.55Q320.85-4.69 324.34-3.27L324.34-3.27Q325.44-2.83 326.62-2.83 327.81-2.83 328.87-3.17 329.93-3.52 330.79-4.3L330.79-4.3Q332.74-6.08 332.74-9.62L332.74-9.62 332.74-12.26Q332.74-14.87 331.71-16.46L331.71-16.46Q330.74-17.99 329.22-17.9L329.22-17.9Q325.41-17.65 325.41-19.95L325.41-19.95Q325.41-20.87 326.07-21.48L326.07-21.48Q326.59-21.14 327.2-21.14 327.81-21.14 328.08-21.26L328.08-21.26 328.91-21.63Q330.3-22.29 331.08-23.75L331.08-23.75Q331.52-24.58 331.52-25.83L331.52-25.83 331.52-27.98Q331.52-31.52 330-33.2L330-33.2Q328.81-34.57 326.64-34.57L326.64-34.57Q323.22-34.57 322.05-31.15L322.05-31.15Q321.65-30.03 321.65-28.86 321.65-27.69 321.81-27.06 321.97-26.44 322.19-26.03L322.19-26.03Q322.51-25.37 322.9-25.07L322.9-25.07Q322.41-24.61 321.64-24.61 320.87-24.61 320.21-24.85 319.56-25.1 319.09-25.49L319.09-25.49Q318.11-26.32 318.11-27.26 318.11-28.2 318.38-28.74L318.38-28.74Q317.21-29.54 317.21-30.88 317.21-32.23 318.14-33.2L318.14-33.2Q317.36-34.2 317.36-35.05 317.36-35.89 317.59-36.49 317.82-37.08 318.24-37.55L318.24-37.55Q319.16-38.5 320.46-38.5L320.46-38.5Q321.09-38.5 321.63-38.23L321.63-38.23Q321.29-37.7 321.29-37.26L321.29-37.26Q321.29-36.6 322.02-36.6L322.02-36.6Q322.51-36.6 323.71-36.96L323.71-36.96Q326.49-37.84 328.83-37.84 331.18-37.84 333.02-37.37 334.86-36.89 336.4-36.01L336.4-36.01Q339.75-34.11 340.55-31.08L340.55-31.08Q341.04-29.39 342.87-28.32L342.87-28.32Q340.99-27.27 340.43-25.37L340.43-25.37Q339.43-22.05 335.79-20.43L335.79-20.43Q338.23-19.51 339.95-17.93 341.67-16.36 342.26-14.31L342.26-14.31Q342.65-12.92 344.58-11.79L344.58-11.79Q342.7-10.74 342.05-8.59 341.41-6.45 339.95-4.7 338.5-2.95 336.6-1.81L336.6-1.81Q332.81 0.49 327.88 0.49L327.88 0.49Q324.8 0.49 322.05-0.63L322.05-0.63Q321.58-0.83 321.19-0.83L321.19-0.83Q320.48-0.83 320.48-0.22 320.48 0.39 320.82 0.88ZM333.3-22L333.3-22Q334.74-22.24 335.23-26.46L335.23-26.46Q335.38-27.76 336.99-28.32L336.99-28.32Q336.23-28.56 335.7-29.28 335.18-30 335.06-30.7 334.94-31.4 334.7-31.96 334.47-32.52 334.18-32.96L334.18-32.96Q333.54-33.89 332.91-33.98L332.91-33.98 333.15-33.45Q333.74-32.23 333.74-29.61 333.74-27 333.73-26.07 333.72-25.15 333.67-24.44L333.67-24.44Q333.62-23.27 333.3-22ZM334.28-4.91L334.28-4.91Q335.06-5.05 335.42-5.69L335.42-5.69Q336.01-6.69 336.33-8.5L336.33-8.5Q336.86-11.33 338.21-11.79L338.21-11.79Q336.69-12.26 336.45-13.84L336.45-13.84Q336.18-15.41 335.5-16.21L335.5-16.21Q334.42-17.5 333.67-17.63L333.67-17.63Q333.76-17.41 333.98-17.07 334.2-16.72 334.42-16.11L334.42-16.11Q334.96-14.58 334.96-12.52 334.96-10.47 334.9-9.35 334.84-8.23 334.74-7.32L334.74-7.32Q334.55-5.57 334.28-4.91ZM369.62-2.1L369.62-2.1Q371.8-2.1 372.63-3.96L372.63-3.96 372.63-10.74 359.59-10.74Q358.12-10.74 357.48-11.23 356.83-11.72 356.83-12.35L356.83-12.35Q356.83-13.35 358.1-15.01L358.1-15.01 370.8-34.72Q372.02-36.33 372.97-37.08 373.92-37.84 374.91-37.84 375.9-37.84 376.83-37.13L376.83-37.13Q377.78-37.84 378.85-37.84 379.93-37.84 380.8-37.35L380.8-37.35Q381.78-37.84 382.7-37.84 383.61-37.84 384.14-37.67 384.66-37.5 385.05-37.21L385.05-37.21Q385.96-36.52 385.96-35.57L385.96-35.57Q385.96-35.08 385.69-34.72L385.69-34.72Q385.15-35.13 384.32-35.13L384.32-35.13Q382.49-35.13 381.61-33.57L381.61-33.57 381.61-14.01Q383.88-14.01 384.72-14.39 385.57-14.77 385.94-15.3 386.32-15.82 386.32-17.14 386.32-18.46 385.81-19.31L385.81-19.31Q386.2-19.65 387.03-19.65L387.03-19.65Q388.67-19.65 389.4-17.97L389.4-17.97Q389.67-17.36 389.67-16.69 389.67-16.02 389.37-15.19L389.37-15.19Q390.38-14.04 390.38-12.46 390.38-10.89 389.37-9.74L389.37-9.74Q389.67-8.91 389.67-8.24 389.67-7.57 389.4-6.96 389.13-6.35 388.72-5.98L388.72-5.98Q387.98-5.3 387.03-5.3L387.03-5.3Q386.35-5.3 385.81-5.69L385.81-5.69Q386.32-6.54 386.32-7.65 386.32-8.76 385.91-9.34 385.49-9.91 384.93-10.16 384.37-10.4 383.99-10.47 383.61-10.55 383.2-10.6L383.2-10.6Q382.25-10.74 381.61-10.74L381.61-10.74 381.61-3.96Q382.44-2.1 384.61-2.1L384.61-2.1Q385.44-2.1 385.98-2.51L385.98-2.51Q386.25-2.15 386.25-1.67 386.25-1.2 385.97-0.78 385.69-0.37 385.2-0.05L385.2-0.05Q384.08 0.61 382.64 0.61 381.2 0.61 379.95-0.17L379.95-0.17Q378.71 0.61 377.12 0.61 375.53 0.61 374.29-0.17L374.29-0.17Q373.04 0.61 371.98 0.61 370.92 0.61 370.23 0.43 369.55 0.24 369.04-0.05L369.04-0.05Q367.99-0.71 367.99-1.66L367.99-1.66Q367.99-2.15 368.26-2.51L368.26-2.51Q368.79-2.1 369.62-2.1ZM361.44-14.01L372.63-14.01 372.63-31.59 361.44-14.01ZM378.12-12.52L378.12-12.52Q376.46-13.04 376.46-13.92L376.46-13.92Q376.46-27.05 376.26-28.27L376.26-28.27Q375.97-30.05 374.97-30.52L374.97-30.52 374.97-6.47Q376.46-7.06 376.46-11.28L376.46-11.28Q376.46-11.96 378.12-12.52ZM409.46 0.49L409.46 0.49Q396.82 0.49 395.01-15.23L395.01-15.23Q394.65-18.43 392.52-19.46L392.52-19.46Q394.65-20.46 395.02-23.57 395.4-26.68 396.55-29.36 397.7-32.03 399.53-33.94L399.53-33.94Q403.31-37.84 409.51-37.84 415.71-37.84 419.35-34.2 422.99-30.57 423.8-23.39L423.8-23.39Q424.11-20.46 426.29-19.46L426.29-19.46Q424.16-18.41 423.76-14.93 423.36-11.45 422.21-8.52 421.06-5.59 419.23-3.59L419.23-3.59Q415.54 0.49 409.46 0.49ZM409.46-2.78L409.46-2.78Q413.47-2.78 413.47-7.98L413.47-7.98 413.47-29.22Q413.47-32.96 411.12-34.2L411.12-34.2Q410.37-34.59 409.46-34.59L409.46-34.59Q407.56-34.59 406.4-33.2 405.24-31.81 405.24-29.22L405.24-29.22 405.24-7.98Q405.24-5.47 406.33-4.13 407.41-2.78 409.46-2.78ZM417.45-17.94L417.45-17.94Q417.45-19.17 419.11-19.73L419.11-19.73Q417.45-20.24 417.45-22.07L417.45-22.07 417.45-24.05Q417.45-29.81 415.81-30.52L415.81-30.52 415.81-6.47Q416.91-6.91 417.18-9.52L417.18-9.52Q417.45-11.99 417.45-17.94ZM400.55-6.47L400.55-6.47Q400.92-6.62 400.92-6.98L400.92-6.98Q400.92-7.52 400.41-8.67L400.41-8.67Q399.11-11.62 399.11-19.46L399.11-19.46Q399.11-25.17 400.48-29.17L400.48-29.17Q400.65-29.79 400.65-30.1 400.65-30.42 400.33-30.52L400.33-30.52Q399.19-29.08 398.7-27.66L398.7-27.66Q397.79-25.07 397.26-20.65L397.26-20.65Q397.18-20.02 395.82-19.46L395.82-19.46Q397.18-18.85 397.26-18.21L397.26-18.21Q398.14-10.64 399.5-8.11L399.5-8.11Q399.97-7.2 400.55-6.47ZM440.1-2.1L440.1-2.1Q442.27-2.1 443.1-3.96L443.1-3.96 443.1-10.74 430.07-10.74Q428.6-10.74 427.96-11.23 427.31-11.72 427.31-12.35L427.31-12.35Q427.31-13.35 428.58-15.01L428.58-15.01 441.27-34.72Q442.49-36.33 443.45-37.08 444.4-37.84 445.39-37.84 446.38-37.84 447.3-37.13L447.3-37.13Q448.26-37.84 449.33-37.84 450.4-37.84 451.28-37.35L451.28-37.35Q452.26-37.84 453.18-37.84 454.09-37.84 454.62-37.67 455.14-37.5 455.53-37.21L455.53-37.21Q456.43-36.52 456.43-35.57L456.43-35.57Q456.43-35.08 456.17-34.72L456.17-34.72Q455.63-35.13 454.8-35.13L454.8-35.13Q452.97-35.13 452.09-33.57L452.09-33.57 452.09-14.01Q454.36-14.01 455.2-14.39 456.04-14.77 456.42-15.3 456.8-15.82 456.8-17.14 456.8-18.46 456.29-19.31L456.29-19.31Q456.68-19.65 457.51-19.65L457.51-19.65Q459.14-19.65 459.88-17.97L459.88-17.97Q460.15-17.36 460.15-16.69 460.15-16.02 459.85-15.19L459.85-15.19Q460.85-14.04 460.85-12.46 460.85-10.89 459.85-9.74L459.85-9.74Q460.15-8.91 460.15-8.24 460.15-7.57 459.88-6.96 459.61-6.35 459.19-5.98L459.19-5.98Q458.46-5.3 457.51-5.3L457.51-5.3Q456.83-5.3 456.29-5.69L456.29-5.69Q456.8-6.54 456.8-7.65 456.8-8.76 456.39-9.34 455.97-9.91 455.41-10.16 454.85-10.4 454.47-10.47 454.09-10.55 453.68-10.6L453.68-10.6Q452.72-10.74 452.09-10.74L452.09-10.74 452.09-3.96Q452.92-2.1 455.09-2.1L455.09-2.1Q455.92-2.1 456.46-2.51L456.46-2.51Q456.73-2.15 456.73-1.67 456.73-1.2 456.45-0.78 456.17-0.37 455.68-0.05L455.68-0.05Q454.55 0.61 453.11 0.61 451.67 0.61 450.43-0.17L450.43-0.17Q449.18 0.61 447.6 0.61 446.01 0.61 444.76-0.17L444.76-0.17Q443.52 0.61 442.46 0.61 441.4 0.61 440.71 0.43 440.03 0.24 439.52-0.05L439.52-0.05Q438.47-0.71 438.47-1.66L438.47-1.66Q438.47-2.15 438.73-2.51L438.73-2.51Q439.27-2.1 440.1-2.1ZM431.92-14.01L443.1-14.01 443.1-31.59 431.92-14.01ZM448.6-12.52L448.6-12.52Q446.94-13.04 446.94-13.92L446.94-13.92Q446.94-27.05 446.74-28.27L446.74-28.27Q446.45-30.05 445.45-30.52L445.45-30.52 445.45-6.47Q446.94-7.06 446.94-11.28L446.94-11.28Q446.94-11.96 448.6-12.52Z" opacity="1" transform="matrix(1,0,0,1,0,0)" fill="#000000" class="wordmark-text-0" data-fill-palette-color="primary" id="text-0"></path></svg></g></svg></g><g transform="matrix(1,0,0,1,0,18.957357310696093)"><svg viewBox="0 0 192 10.223755517826824" height="10.223755517826824" width="192"><g transform="matrix(1,0,0,1,0,0)"><svg width="192" viewBox="3.61 -37.5 713.42 37.99" height="10.223755517826824" data-palette-color="#89939e"><path d="M31.81-35.55L31.81 0 25.63 0 9.79-25.22 9.79 0 3.61 0 3.61-35.55 9.79-35.55 25.68-10.23 25.68-35.55 31.81-35.55ZM98.41-13.16L98.41-13.45Q98.41-17.33 99.95-20.45 101.49-23.56 104.27-25.23 107.06-26.9 110.67-26.9L110.67-26.9Q116.02-26.9 119.35-23.46 122.68-20.02 122.95-14.33L122.95-14.33 122.97-12.94Q122.97-9.03 121.47-5.96 119.97-2.88 117.18-1.2 114.38 0.49 110.72 0.49L110.72 0.49Q105.13 0.49 101.77-3.23 98.41-6.96 98.41-13.16L98.41-13.16ZM104.35-12.94L104.35-12.94Q104.35-8.86 106.03-6.56 107.72-4.25 110.72-4.25 113.72-4.25 115.39-6.59 117.07-8.94 117.07-13.45L117.07-13.45Q117.07-17.46 115.35-19.8 113.62-22.14 110.67-22.14L110.67-22.14Q107.76-22.14 106.06-19.84 104.35-17.53 104.35-12.94ZM190.48-32.84L196.41-32.84 196.41-26.42 201.08-26.42 201.08-22.02 196.41-22.02 196.41-7.28Q196.41-5.76 197.01-5.09 197.61-4.42 199.15-4.42L199.15-4.42Q200.17-4.42 201.22-4.66L201.22-4.66 201.22-0.07Q199.2 0.49 197.32 0.49L197.32 0.49Q190.48 0.49 190.48-7.06L190.48-7.06 190.48-22.02 186.13-22.02 186.13-26.42 190.48-26.42 190.48-32.84ZM361.09-20L361.09-15.06 346.78-15.06 346.78 0 340.6 0 340.6-35.55 363.19-35.55 363.19-30.57 346.78-30.57 346.78-20 361.09-20ZM426.86-13.16L426.86-13.45Q426.86-17.33 428.4-20.45 429.94-23.56 432.72-25.23 435.5-26.9 439.12-26.9L439.12-26.9Q444.46-26.9 447.8-23.46 451.13-20.02 451.4-14.33L451.4-14.33 451.42-12.94Q451.42-9.03 449.92-5.96 448.42-2.88 445.62-1.2 442.83 0.49 439.17 0.49L439.17 0.49Q433.57 0.49 430.22-3.23 426.86-6.96 426.86-13.16L426.86-13.16ZM432.79-12.94L432.79-12.94Q432.79-8.86 434.48-6.56 436.16-4.25 439.17-4.25 442.17-4.25 443.84-6.59 445.51-8.94 445.51-13.45L445.51-13.45Q445.51-17.46 443.79-19.8 442.07-22.14 439.12-22.14L439.12-22.14Q436.21-22.14 434.5-19.84 432.79-17.53 432.79-12.94ZM533.58 0L533.43-2.59Q530.82 0.49 526.01 0.49L526.01 0.49Q521.71 0.49 519.5-2.03 517.29-4.54 517.29-9.3L517.29-9.3 517.29-26.42 523.22-26.42 523.22-9.38Q523.22-4.35 527.4-4.35L527.4-4.35Q531.72-4.35 533.23-7.45L533.23-7.45 533.23-26.42 539.17-26.42 539.17 0 533.58 0ZM606.11-26.42L611.7-26.42 611.87-23.36Q614.8-26.9 619.56-26.9L619.56-26.9Q627.82-26.9 627.96-17.46L627.96-17.46 627.96 0 622.03 0 622.03-17.11Q622.03-19.63 620.94-20.84 619.86-22.05 617.39-22.05L617.39-22.05Q613.8-22.05 612.04-18.8L612.04-18.8 612.04 0 606.11 0 606.11-26.42ZM693.88-13.4L693.88-13.4Q693.88-19.51 696.71-23.21 699.54-26.9 704.31-26.9L704.31-26.9Q708.5-26.9 711.09-23.97L711.09-23.97 711.09-37.5 717.03-37.5 717.03 0 711.65 0 711.36-2.73Q708.7 0.49 704.26 0.49L704.26 0.49Q699.62 0.49 696.75-3.25 693.88-6.98 693.88-13.4ZM699.81-12.89L699.81-12.89Q699.81-8.86 701.36-6.6 702.91-4.35 705.77-4.35L705.77-4.35Q709.41-4.35 711.09-7.59L711.09-7.59 711.09-18.87Q709.46-22.05 705.82-22.05L705.82-22.05Q702.94-22.05 701.38-19.76 699.81-17.48 699.81-12.89Z" opacity="1" transform="matrix(1,0,0,1,0,0)" fill="#000000" class="slogan-text-1" data-fill-palette-color="secondary" id="text-1"></path></svg></g></svg></g></svg></g></svg></g><g transform="matrix(1,0,0,1,52.64281609677743,0)"><svg viewBox="0 0 86.71436780644514 80.65659585803735" height="80.65659585803735" width="86.71436780644514"><g><svg xmlns="http://www.w3.org/2000/svg" xmlns:xlink="http://www.w3.org/1999/xlink" version="1.1" x="0" y="0" viewBox="247.167 141.416 60.29696700000002 56.08468609999994" enable-background="new 226.667 118.25 100 100" xml:space="preserve" height="80.65659585803735" width="86.71436780644514" class="icon-icon-0" data-fill-palette-color="accent" id="icon-0"><g fill="#89939e" data-fill-palette-color="accent"><path d="M268.865 141.416c-11.965 0-21.698 9.733-21.698 21.697 0 11.965 9.733 21.699 21.698 21.699 11.964 0 21.696-9.734 21.696-21.699C290.562 151.149 280.829 141.416 268.865 141.416zM268.865 182.721c-10.812 0-19.607-8.796-19.607-19.607 0-10.811 8.796-19.605 19.607-19.605 10.811 0 19.605 8.795 19.605 19.605C288.471 173.925 279.676 182.721 268.865 182.721z" fill="#000000" data-fill-palette-color="accent"></path><rect x="292.475" y="174.902" transform="matrix(0.6374 -0.7705 0.7705 0.6374 -36.8587 295.8418)" width="6.85" height="24.362" fill="#000000" data-fill-palette-color="accent"></rect><path d="M254.426 155.945c-3.495 7.286-0.337 15.193 6.324 19.867l0.424-0.566c-6.021-4.223-8.386-12.018-5.228-18.602 3.088-6.434 10.599-9.351 17.617-7.769l0.176-0.407C265.885 146.555 257.888 148.73 254.426 155.945z" fill="#000000" data-fill-palette-color="accent"></path></g></svg></g></svg></g><g></g></svg></g></svg></g></svg></g></svg></g><defs></defs></svg><rect width="320" height="360" fill="none" stroke="none" visibility="hidden"></rect></g></svg></g></svg>